<?xml version="1.0" encoding="UTF-8"?>
<svg id="Layer_2" data-name="Layer 2" xmlns="http://www.w3.org/2000/svg" viewBox="0 0 834.98 266.01">
  <defs>
    <style>
      .cls-1 {
        fill: #ed7d28;
      }

      .cls-2 {
        fill: #17a1c7;
      }

      .cls-3 {
        fill: #17a0c6;
      }

      .cls-4 {
        fill: #ef7d28;
      }
    </style>
  </defs>
  <g id="Layer_1-2" data-name="Layer 1">
    <g>
      <g>
        <path class="cls-2" d="M107.61,198.88h44.5c6.95,0,13.52-.28,20.32-1.68,10.48-2.16,20.24-6.64,28.78-13.05,12.01-9.02,20.74-21.39,25.38-35.7,7.05-21.74,5.83-46.57-4.74-67.03-7.66-14.83-19.84-26.6-35.05-33.52-10.13-4.45-20.77-6.71-31.95-6.72l-62.31-.06v102.15s-11.64,12.32-11.64,12.32l-31.19,33.26V.06s105.8-.06,105.8-.06c12.85.38,25.46,2.11,37.71,5.81,23.11,6.85,43.45,21.51,57.67,40.84,21.99,29.9,28.14,66.93,19.91,102.86-8.9,38.88-36.06,70.62-73.83,83.92-11.12,3.92-22.88,6.7-34.85,6.71l-104.91.08,21.89-18.14,18.21-14.92,10.29-8.3Z"/>
        <polygon class="cls-4" points="32.18 239.28 0 266.01 65.18 196.03 159.63 94.92 147.04 87.66 134.61 80.6 178.25 71.57 205.13 66.97 199.82 104.08 195.47 134.4 180.26 114.61 168.58 124.87 128.99 158.47 32.18 239.28"/>
      </g>
      <g>
        <path class="cls-1" d="M397.74,32.06c10.33,5.48,18.33,13.16,23.99,23.06,5.66,9.9,8.49,21.32,8.49,34.26s-2.83,24.21-8.49,34.17c-5.66,9.96-13.69,17.67-24.08,23.15-10.39,5.48-22.44,8.21-36.13,8.21h-49.1V23.84h49.1c13.82,0,25.89,2.74,36.22,8.21ZM387.66,117.38c6.72-6.6,10.08-15.93,10.08-28s-3.36-21.47-10.08-28.19c-6.72-6.72-16.12-10.08-28.19-10.08h-15.12v76.17h15.12c12.07,0,21.47-3.3,28.19-9.89Z"/>
        <path class="cls-1" d="M480.08,49.42v26.51h42.75v24.64h-42.75v28.75h48.35v25.58h-80.28V23.84h80.28v25.58h-48.35Z"/>
        <path class="cls-1" d="M666.4,154.9h-31.93l-53.39-80.84v80.84h-31.93V23.84h31.93l53.39,81.21V23.84h31.93v131.06Z"/>
        <path class="cls-1" d="M721.47,23.84v131.06h-31.93V23.84h31.93Z"/>
        <path class="cls-1" d="M778.6,128.77h56.38v26.14h-92.6v-24.27l56.01-80.65h-56.01v-26.14h92.6v24.27l-56.38,80.65Z"/>
      </g>
      <g>
        <path class="cls-3" d="M421.59,186.06v46.33h-4.7v-37l-16.52,37h-3.42l-16.52-36.86v36.86h-4.7v-46.33h4.97l17.93,40.15,17.93-40.15h5.04Z"/>
        <path class="cls-3" d="M464.96,221.24h-21.35l-4.1,11.15h-4.97l17.12-46.33h5.31l17.05,46.33h-4.97l-4.1-11.15ZM463.55,217.35l-9.27-25.38-9.27,25.38h18.53Z"/>
        <path class="cls-3" d="M512.03,232.39l-11.62-19.61h-8.66v19.61h-4.7v-46.94h14.1c5.24,0,9.21,1.25,11.92,3.76,2.71,2.51,4.06,5.8,4.06,9.87,0,3.4-.97,6.3-2.92,8.7-1.95,2.4-4.82,3.95-8.63,4.67l12.09,19.94h-5.64ZM491.75,208.96h9.47c3.67,0,6.43-.9,8.29-2.69,1.86-1.79,2.79-4.19,2.79-7.18s-.9-5.47-2.69-7.15c-1.79-1.68-4.61-2.52-8.46-2.52h-9.4v19.54Z"/>
        <path class="cls-3" d="M557.02,232.39l-20.35-21.69v21.69h-4.7v-46.94h4.7v21.96l20.35-21.96h5.98l-21.96,23.43,22.16,23.5h-6.18Z"/>
        <path class="cls-3" d="M580.32,189.28v17.53h17.79v3.89h-17.79v17.79h19.81v3.89h-24.51v-47h24.51v3.89h-19.81Z"/>
        <path class="cls-3" d="M642.36,185.45v3.89h-13.03v43.04h-4.7v-43.04h-13.09v-3.89h30.82Z"/>
        <path class="cls-3" d="M660.02,185.45v46.94h-4.7v-46.94h4.7Z"/>
        <path class="cls-3" d="M711.59,232.39h-4.7l-25.99-39.48v39.48h-4.7v-46.94h4.7l25.99,39.42v-39.42h4.7v46.94Z"/>
        <path class="cls-3" d="M764.7,199.15c-1.34-3.09-3.39-5.52-6.14-7.28-2.75-1.77-5.99-2.65-9.7-2.65-3.49,0-6.63.81-9.4,2.42-2.78,1.61-4.97,3.91-6.58,6.88-1.61,2.98-2.42,6.44-2.42,10.37s.81,7.41,2.42,10.41c1.61,3,3.8,5.31,6.58,6.92,2.77,1.61,5.91,2.42,9.4,2.42,3.27,0,6.21-.7,8.83-2.12,2.62-1.41,4.72-3.42,6.31-6.04,1.59-2.62,2.49-5.67,2.72-9.17h-19.74v-3.83h24.71v3.43c-.23,4.12-1.34,7.85-3.36,11.18-2.01,3.33-4.71,5.96-8.09,7.89-3.38,1.93-7.17,2.89-11.38,2.89s-8.28-1.02-11.82-3.06c-3.54-2.04-6.32-4.88-8.36-8.53-2.04-3.65-3.06-7.78-3.06-12.39s1.02-8.74,3.06-12.39c2.04-3.65,4.82-6.49,8.36-8.53,3.54-2.04,7.48-3.06,11.82-3.06,5.01,0,9.4,1.25,13.16,3.76,3.76,2.51,6.49,6,8.19,10.47h-5.51Z"/>
      </g>
    </g>
  </g>
</svg>